<mxfile host="app.diagrams.net" modified="2023-12-18T12:36:32.475Z" agent="Mozilla/5.0 (Windows NT 10.0; Win64; x64) AppleWebKit/537.36 (KHTML, like Gecko) Chrome/120.0.0.0 Safari/537.36" etag="6cQV6Q9MHdFLlfQQjPJe" version="22.1.11" type="device">
  <diagram name="Page-1" id="OKqTmcxiO-A4mmKjdJ3u">
    <mxGraphModel dx="1335" dy="636" grid="1" gridSize="10" guides="1" tooltips="1" connect="1" arrows="1" fold="1" page="1" pageScale="1" pageWidth="850" pageHeight="1100" math="0" shadow="0">
      <root>
        <mxCell id="0" />
        <mxCell id="1" parent="0" />
        <mxCell id="5ey0apjwmLTVWswMsvuO-1" value="HR Manager" style="shape=umlActor;verticalLabelPosition=bottom;verticalAlign=top;html=1;outlineConnect=0;" parent="1" vertex="1">
          <mxGeometry x="90" y="70" width="30" height="60" as="geometry" />
        </mxCell>
        <mxCell id="5ey0apjwmLTVWswMsvuO-2" value="" style="rounded=0;whiteSpace=wrap;html=1;" parent="1" vertex="1">
          <mxGeometry x="305" y="80" width="120" height="60" as="geometry" />
        </mxCell>
        <mxCell id="5ey0apjwmLTVWswMsvuO-3" value="" style="shape=cylinder3;whiteSpace=wrap;html=1;boundedLbl=1;backgroundOutline=1;size=15;" parent="1" vertex="1">
          <mxGeometry x="610" y="60" width="60" height="80" as="geometry" />
        </mxCell>
        <mxCell id="5ey0apjwmLTVWswMsvuO-4" value="Sequence Diagram for HR Manager" style="text;html=1;align=center;verticalAlign=middle;resizable=0;points=[];autosize=1;strokeColor=none;fillColor=none;" parent="1" vertex="1">
          <mxGeometry x="215" y="18" width="210" height="30" as="geometry" />
        </mxCell>
        <mxCell id="5ey0apjwmLTVWswMsvuO-7" value="Interface" style="text;html=1;align=center;verticalAlign=middle;resizable=0;points=[];autosize=1;strokeColor=none;fillColor=none;" parent="1" vertex="1">
          <mxGeometry x="335" y="138" width="70" height="30" as="geometry" />
        </mxCell>
        <mxCell id="5ey0apjwmLTVWswMsvuO-8" value="Data Base" style="text;html=1;align=center;verticalAlign=middle;resizable=0;points=[];autosize=1;strokeColor=none;fillColor=none;" parent="1" vertex="1">
          <mxGeometry x="600" y="140" width="80" height="30" as="geometry" />
        </mxCell>
        <mxCell id="5ey0apjwmLTVWswMsvuO-12" value="" style="rounded=0;whiteSpace=wrap;html=1;" parent="1" vertex="1">
          <mxGeometry x="100" y="240" width="10" height="1620" as="geometry" />
        </mxCell>
        <mxCell id="5ey0apjwmLTVWswMsvuO-13" value="" style="endArrow=none;dashed=1;html=1;rounded=0;exitX=0.5;exitY=0;exitDx=0;exitDy=0;" parent="1" source="5ey0apjwmLTVWswMsvuO-12" edge="1">
          <mxGeometry width="50" height="50" relative="1" as="geometry">
            <mxPoint x="230" y="310" as="sourcePoint" />
            <mxPoint x="105" y="160" as="targetPoint" />
          </mxGeometry>
        </mxCell>
        <mxCell id="5ey0apjwmLTVWswMsvuO-16" value="" style="rounded=0;whiteSpace=wrap;html=1;" parent="1" vertex="1">
          <mxGeometry x="365" y="240" width="10" height="1580" as="geometry" />
        </mxCell>
        <mxCell id="5ey0apjwmLTVWswMsvuO-17" value="" style="endArrow=none;dashed=1;html=1;rounded=0;exitX=0.5;exitY=0;exitDx=0;exitDy=0;" parent="1" source="5ey0apjwmLTVWswMsvuO-16" edge="1">
          <mxGeometry width="50" height="50" relative="1" as="geometry">
            <mxPoint x="495" y="310" as="sourcePoint" />
            <mxPoint x="370" y="160" as="targetPoint" />
          </mxGeometry>
        </mxCell>
        <mxCell id="5ey0apjwmLTVWswMsvuO-18" value="" style="rounded=0;whiteSpace=wrap;html=1;" parent="1" vertex="1">
          <mxGeometry x="640" y="240" width="10" height="1520" as="geometry" />
        </mxCell>
        <mxCell id="5ey0apjwmLTVWswMsvuO-19" value="" style="endArrow=none;dashed=1;html=1;rounded=0;exitX=0.5;exitY=0;exitDx=0;exitDy=0;" parent="1" source="5ey0apjwmLTVWswMsvuO-18" edge="1">
          <mxGeometry width="50" height="50" relative="1" as="geometry">
            <mxPoint x="770" y="310" as="sourcePoint" />
            <mxPoint x="645" y="160" as="targetPoint" />
          </mxGeometry>
        </mxCell>
        <mxCell id="5ey0apjwmLTVWswMsvuO-21" value="" style="endArrow=classic;html=1;rounded=0;" parent="1" edge="1">
          <mxGeometry width="50" height="50" relative="1" as="geometry">
            <mxPoint x="105" y="280" as="sourcePoint" />
            <mxPoint x="360" y="280" as="targetPoint" />
          </mxGeometry>
        </mxCell>
        <mxCell id="5ey0apjwmLTVWswMsvuO-22" value="" style="endArrow=classic;html=1;rounded=0;" parent="1" edge="1">
          <mxGeometry width="50" height="50" relative="1" as="geometry">
            <mxPoint x="380" y="290" as="sourcePoint" />
            <mxPoint x="640" y="291" as="targetPoint" />
          </mxGeometry>
        </mxCell>
        <mxCell id="5ey0apjwmLTVWswMsvuO-23" value="HR Login()" style="text;html=1;align=center;verticalAlign=middle;resizable=0;points=[];autosize=1;strokeColor=none;fillColor=none;" parent="1" vertex="1">
          <mxGeometry x="180" y="248" width="80" height="30" as="geometry" />
        </mxCell>
        <mxCell id="5ey0apjwmLTVWswMsvuO-24" value="Authentication" style="text;html=1;align=center;verticalAlign=middle;resizable=0;points=[];autosize=1;strokeColor=none;fillColor=none;" parent="1" vertex="1">
          <mxGeometry x="450" y="258" width="100" height="30" as="geometry" />
        </mxCell>
        <mxCell id="5ey0apjwmLTVWswMsvuO-26" value="&amp;nbsp;Email and Password is valid" style="text;html=1;align=center;verticalAlign=middle;resizable=0;points=[];autosize=1;strokeColor=none;fillColor=none;" parent="1" vertex="1">
          <mxGeometry x="410" y="310" width="180" height="30" as="geometry" />
        </mxCell>
        <mxCell id="5ey0apjwmLTVWswMsvuO-28" value="Redirect to the Interface" style="text;html=1;align=center;verticalAlign=middle;resizable=0;points=[];autosize=1;strokeColor=none;fillColor=none;" parent="1" vertex="1">
          <mxGeometry x="145" y="328" width="150" height="30" as="geometry" />
        </mxCell>
        <mxCell id="5ey0apjwmLTVWswMsvuO-30" value="Email and Password is invalid" style="text;html=1;align=center;verticalAlign=middle;resizable=0;points=[];autosize=1;strokeColor=none;fillColor=none;" parent="1" vertex="1">
          <mxGeometry x="420" y="348" width="180" height="30" as="geometry" />
        </mxCell>
        <mxCell id="5ey0apjwmLTVWswMsvuO-31" value="" style="endArrow=classic;html=1;rounded=0;exitX=1.182;exitY=0.065;exitDx=0;exitDy=0;exitPerimeter=0;entryX=1.1;entryY=0.195;entryDx=0;entryDy=0;entryPerimeter=0;" parent="1" edge="1">
          <mxGeometry width="50" height="50" relative="1" as="geometry">
            <mxPoint x="364" y="410" as="sourcePoint" />
            <mxPoint x="110" y="412" as="targetPoint" />
          </mxGeometry>
        </mxCell>
        <mxCell id="5ey0apjwmLTVWswMsvuO-32" value="Display Error Message" style="text;html=1;align=center;verticalAlign=middle;resizable=0;points=[];autosize=1;strokeColor=none;fillColor=none;" parent="1" vertex="1">
          <mxGeometry x="155" y="390" width="140" height="30" as="geometry" />
        </mxCell>
        <mxCell id="5ey0apjwmLTVWswMsvuO-33" value="" style="endArrow=classic;html=1;rounded=0;exitX=1.182;exitY=0.065;exitDx=0;exitDy=0;exitPerimeter=0;" parent="1" edge="1">
          <mxGeometry width="50" height="50" relative="1" as="geometry">
            <mxPoint x="110" y="471" as="sourcePoint" />
            <mxPoint x="360" y="470" as="targetPoint" />
          </mxGeometry>
        </mxCell>
        <mxCell id="5ey0apjwmLTVWswMsvuO-34" value="Add New Employee()" style="text;html=1;align=center;verticalAlign=middle;resizable=0;points=[];autosize=1;strokeColor=none;fillColor=none;" parent="1" vertex="1">
          <mxGeometry x="145" y="440" width="140" height="30" as="geometry" />
        </mxCell>
        <mxCell id="5ey0apjwmLTVWswMsvuO-35" value="" style="endArrow=classic;html=1;rounded=0;exitX=1.323;exitY=0.08;exitDx=0;exitDy=0;exitPerimeter=0;" parent="1" edge="1">
          <mxGeometry width="50" height="50" relative="1" as="geometry">
            <mxPoint x="378" y="480" as="sourcePoint" />
            <mxPoint x="640" y="480" as="targetPoint" />
          </mxGeometry>
        </mxCell>
        <mxCell id="5ey0apjwmLTVWswMsvuO-36" value="Register Employee Details" style="text;html=1;align=center;verticalAlign=middle;resizable=0;points=[];autosize=1;strokeColor=none;fillColor=none;" parent="1" vertex="1">
          <mxGeometry x="425" y="450" width="160" height="30" as="geometry" />
        </mxCell>
        <mxCell id="5ey0apjwmLTVWswMsvuO-39" value="Department Details" style="text;html=1;align=center;verticalAlign=middle;resizable=0;points=[];autosize=1;strokeColor=none;fillColor=none;" parent="1" vertex="1">
          <mxGeometry x="440" y="490" width="130" height="30" as="geometry" />
        </mxCell>
        <mxCell id="5ey0apjwmLTVWswMsvuO-40" value="" style="endArrow=classic;dashed=1;html=1;rounded=0;endFill=1;exitX=-0.133;exitY=0.214;exitDx=0;exitDy=0;exitPerimeter=0;" parent="1" edge="1">
          <mxGeometry width="50" height="50" relative="1" as="geometry">
            <mxPoint x="636.6700000000001" y="378.00000000000006" as="sourcePoint" />
            <mxPoint x="373" y="379.04" as="targetPoint" />
          </mxGeometry>
        </mxCell>
        <mxCell id="5ey0apjwmLTVWswMsvuO-41" value="" style="endArrow=classic;dashed=1;html=1;rounded=0;endFill=1;exitX=-0.133;exitY=0.214;exitDx=0;exitDy=0;exitPerimeter=0;" parent="1" edge="1">
          <mxGeometry width="50" height="50" relative="1" as="geometry">
            <mxPoint x="639" y="340" as="sourcePoint" />
            <mxPoint x="375" y="341" as="targetPoint" />
          </mxGeometry>
        </mxCell>
        <mxCell id="5ey0apjwmLTVWswMsvuO-42" value="" style="endArrow=classic;dashed=1;html=1;rounded=0;endFill=1;" parent="1" edge="1">
          <mxGeometry width="50" height="50" relative="1" as="geometry">
            <mxPoint x="360" y="550" as="sourcePoint" />
            <mxPoint x="110" y="551" as="targetPoint" />
          </mxGeometry>
        </mxCell>
        <mxCell id="5ey0apjwmLTVWswMsvuO-43" value="Department Notification" style="text;html=1;align=center;verticalAlign=middle;resizable=0;points=[];autosize=1;strokeColor=none;fillColor=none;" parent="1" vertex="1">
          <mxGeometry x="150" y="518" width="150" height="30" as="geometry" />
        </mxCell>
        <mxCell id="5ey0apjwmLTVWswMsvuO-44" value="" style="endArrow=classic;html=1;rounded=0;entryX=0.933;entryY=0.438;entryDx=0;entryDy=0;entryPerimeter=0;" parent="1" edge="1">
          <mxGeometry width="50" height="50" relative="1" as="geometry">
            <mxPoint x="641" y="559.71" as="sourcePoint" />
            <mxPoint x="375" y="559.71" as="targetPoint" />
          </mxGeometry>
        </mxCell>
        <mxCell id="5ey0apjwmLTVWswMsvuO-45" value="Designation Details" style="text;html=1;align=center;verticalAlign=middle;resizable=0;points=[];autosize=1;strokeColor=none;fillColor=none;" parent="1" vertex="1">
          <mxGeometry x="445" y="528" width="130" height="30" as="geometry" />
        </mxCell>
        <mxCell id="5ey0apjwmLTVWswMsvuO-46" value="" style="endArrow=classic;dashed=1;html=1;rounded=0;endFill=1;" parent="1" edge="1">
          <mxGeometry width="50" height="50" relative="1" as="geometry">
            <mxPoint x="360" y="590" as="sourcePoint" />
            <mxPoint x="110" y="591" as="targetPoint" />
          </mxGeometry>
        </mxCell>
        <mxCell id="5ey0apjwmLTVWswMsvuO-47" value="Designation Notification" style="text;html=1;align=center;verticalAlign=middle;resizable=0;points=[];autosize=1;strokeColor=none;fillColor=none;" parent="1" vertex="1">
          <mxGeometry x="155" y="558" width="150" height="30" as="geometry" />
        </mxCell>
        <mxCell id="5ey0apjwmLTVWswMsvuO-49" value="" style="endArrow=classic;html=1;rounded=0;exitX=1.182;exitY=0.065;exitDx=0;exitDy=0;exitPerimeter=0;" parent="1" edge="1">
          <mxGeometry width="50" height="50" relative="1" as="geometry">
            <mxPoint x="115" y="631" as="sourcePoint" />
            <mxPoint x="365" y="630" as="targetPoint" />
          </mxGeometry>
        </mxCell>
        <mxCell id="5ey0apjwmLTVWswMsvuO-50" value="Add Employee Department()" style="text;html=1;align=center;verticalAlign=middle;resizable=0;points=[];autosize=1;strokeColor=none;fillColor=none;" parent="1" vertex="1">
          <mxGeometry x="145" y="600" width="180" height="30" as="geometry" />
        </mxCell>
        <mxCell id="5ey0apjwmLTVWswMsvuO-51" value="" style="endArrow=classic;html=1;rounded=0;exitX=1.323;exitY=0.08;exitDx=0;exitDy=0;exitPerimeter=0;" parent="1" edge="1">
          <mxGeometry width="50" height="50" relative="1" as="geometry">
            <mxPoint x="374" y="660" as="sourcePoint" />
            <mxPoint x="636" y="660" as="targetPoint" />
          </mxGeometry>
        </mxCell>
        <mxCell id="5ey0apjwmLTVWswMsvuO-52" value="Update Results" style="text;html=1;align=center;verticalAlign=middle;resizable=0;points=[];autosize=1;strokeColor=none;fillColor=none;" parent="1" vertex="1">
          <mxGeometry x="450" y="620" width="110" height="30" as="geometry" />
        </mxCell>
        <mxCell id="5ey0apjwmLTVWswMsvuO-53" value="" style="endArrow=classic;html=1;rounded=0;entryX=0.933;entryY=0.438;entryDx=0;entryDy=0;entryPerimeter=0;" parent="1" edge="1">
          <mxGeometry width="50" height="50" relative="1" as="geometry">
            <mxPoint x="638" y="700" as="sourcePoint" />
            <mxPoint x="372" y="700" as="targetPoint" />
          </mxGeometry>
        </mxCell>
        <mxCell id="5ey0apjwmLTVWswMsvuO-54" value="Results" style="text;html=1;align=center;verticalAlign=middle;resizable=0;points=[];autosize=1;strokeColor=none;fillColor=none;" parent="1" vertex="1">
          <mxGeometry x="480" y="670" width="60" height="30" as="geometry" />
        </mxCell>
        <mxCell id="5ey0apjwmLTVWswMsvuO-55" value="" style="endArrow=classic;dashed=1;html=1;rounded=0;endFill=1;" parent="1" edge="1">
          <mxGeometry width="50" height="50" relative="1" as="geometry">
            <mxPoint x="365" y="740" as="sourcePoint" />
            <mxPoint x="115" y="741" as="targetPoint" />
          </mxGeometry>
        </mxCell>
        <mxCell id="5ey0apjwmLTVWswMsvuO-56" value="Validate Notification" style="text;html=1;align=center;verticalAlign=middle;resizable=0;points=[];autosize=1;strokeColor=none;fillColor=none;" parent="1" vertex="1">
          <mxGeometry x="170" y="710" width="130" height="30" as="geometry" />
        </mxCell>
        <mxCell id="5ey0apjwmLTVWswMsvuO-57" value="" style="endArrow=classic;html=1;rounded=0;exitX=1.182;exitY=0.065;exitDx=0;exitDy=0;exitPerimeter=0;" parent="1" edge="1">
          <mxGeometry width="50" height="50" relative="1" as="geometry">
            <mxPoint x="115" y="781" as="sourcePoint" />
            <mxPoint x="365" y="780" as="targetPoint" />
          </mxGeometry>
        </mxCell>
        <mxCell id="5ey0apjwmLTVWswMsvuO-58" value="Create New HRAssistant" style="text;html=1;align=center;verticalAlign=middle;resizable=0;points=[];autosize=1;strokeColor=none;fillColor=none;" parent="1" vertex="1">
          <mxGeometry x="150" y="748" width="160" height="30" as="geometry" />
        </mxCell>
        <mxCell id="5ey0apjwmLTVWswMsvuO-59" value="" style="endArrow=classic;html=1;rounded=0;exitX=1.323;exitY=0.08;exitDx=0;exitDy=0;exitPerimeter=0;" parent="1" edge="1">
          <mxGeometry width="50" height="50" relative="1" as="geometry">
            <mxPoint x="378" y="800" as="sourcePoint" />
            <mxPoint x="640" y="800" as="targetPoint" />
          </mxGeometry>
        </mxCell>
        <mxCell id="5ey0apjwmLTVWswMsvuO-60" value="HRAssistant Details" style="text;html=1;align=center;verticalAlign=middle;resizable=0;points=[];autosize=1;strokeColor=none;fillColor=none;" parent="1" vertex="1">
          <mxGeometry x="450" y="768" width="130" height="30" as="geometry" />
        </mxCell>
        <mxCell id="5ey0apjwmLTVWswMsvuO-61" value="" style="endArrow=classic;html=1;rounded=0;entryX=0.933;entryY=0.438;entryDx=0;entryDy=0;entryPerimeter=0;" parent="1" edge="1">
          <mxGeometry width="50" height="50" relative="1" as="geometry">
            <mxPoint x="640" y="840" as="sourcePoint" />
            <mxPoint x="374" y="840" as="targetPoint" />
          </mxGeometry>
        </mxCell>
        <mxCell id="5ey0apjwmLTVWswMsvuO-62" value="Results" style="text;html=1;align=center;verticalAlign=middle;resizable=0;points=[];autosize=1;strokeColor=none;fillColor=none;" parent="1" vertex="1">
          <mxGeometry x="475" y="810" width="60" height="30" as="geometry" />
        </mxCell>
        <mxCell id="5ey0apjwmLTVWswMsvuO-63" value="" style="endArrow=classic;dashed=1;html=1;rounded=0;endFill=1;" parent="1" edge="1">
          <mxGeometry width="50" height="50" relative="1" as="geometry">
            <mxPoint x="365" y="870" as="sourcePoint" />
            <mxPoint x="115" y="871" as="targetPoint" />
          </mxGeometry>
        </mxCell>
        <mxCell id="5ey0apjwmLTVWswMsvuO-64" value="Validate Notification" style="text;html=1;align=center;verticalAlign=middle;resizable=0;points=[];autosize=1;strokeColor=none;fillColor=none;" parent="1" vertex="1">
          <mxGeometry x="175" y="848" width="130" height="30" as="geometry" />
        </mxCell>
        <mxCell id="5ey0apjwmLTVWswMsvuO-65" value="" style="endArrow=classic;html=1;rounded=0;exitX=1.182;exitY=0.065;exitDx=0;exitDy=0;exitPerimeter=0;" parent="1" edge="1">
          <mxGeometry width="50" height="50" relative="1" as="geometry">
            <mxPoint x="115" y="911" as="sourcePoint" />
            <mxPoint x="365" y="910" as="targetPoint" />
          </mxGeometry>
        </mxCell>
        <mxCell id="5ey0apjwmLTVWswMsvuO-66" value="SearchEmployeeByDepartment()" style="text;html=1;align=center;verticalAlign=middle;resizable=0;points=[];autosize=1;strokeColor=none;fillColor=none;" parent="1" vertex="1">
          <mxGeometry x="130" y="878" width="200" height="30" as="geometry" />
        </mxCell>
        <mxCell id="5ey0apjwmLTVWswMsvuO-67" value="" style="endArrow=classic;html=1;rounded=0;exitX=1.323;exitY=0.08;exitDx=0;exitDy=0;exitPerimeter=0;" parent="1" edge="1">
          <mxGeometry width="50" height="50" relative="1" as="geometry">
            <mxPoint x="378" y="930" as="sourcePoint" />
            <mxPoint x="640" y="930" as="targetPoint" />
          </mxGeometry>
        </mxCell>
        <mxCell id="5ey0apjwmLTVWswMsvuO-68" value="Send Department" style="text;html=1;align=center;verticalAlign=middle;resizable=0;points=[];autosize=1;strokeColor=none;fillColor=none;" parent="1" vertex="1">
          <mxGeometry x="440" y="898" width="120" height="30" as="geometry" />
        </mxCell>
        <mxCell id="5ey0apjwmLTVWswMsvuO-69" value="" style="endArrow=classic;html=1;rounded=0;entryX=0.933;entryY=0.438;entryDx=0;entryDy=0;entryPerimeter=0;" parent="1" edge="1">
          <mxGeometry width="50" height="50" relative="1" as="geometry">
            <mxPoint x="641" y="970" as="sourcePoint" />
            <mxPoint x="375" y="970" as="targetPoint" />
          </mxGeometry>
        </mxCell>
        <mxCell id="5ey0apjwmLTVWswMsvuO-70" value="Send Data to System" style="text;html=1;align=center;verticalAlign=middle;resizable=0;points=[];autosize=1;strokeColor=none;fillColor=none;" parent="1" vertex="1">
          <mxGeometry x="425" y="938" width="140" height="30" as="geometry" />
        </mxCell>
        <mxCell id="5ey0apjwmLTVWswMsvuO-71" value="" style="endArrow=classic;html=1;rounded=0;exitX=1.182;exitY=0.065;exitDx=0;exitDy=0;exitPerimeter=0;entryX=1.1;entryY=0.195;entryDx=0;entryDy=0;entryPerimeter=0;" parent="1" edge="1">
          <mxGeometry width="50" height="50" relative="1" as="geometry">
            <mxPoint x="362" y="358" as="sourcePoint" />
            <mxPoint x="108" y="360" as="targetPoint" />
          </mxGeometry>
        </mxCell>
        <mxCell id="5ey0apjwmLTVWswMsvuO-72" value="" style="endArrow=classic;html=1;rounded=0;entryX=0.933;entryY=0.438;entryDx=0;entryDy=0;entryPerimeter=0;" parent="1" edge="1">
          <mxGeometry width="50" height="50" relative="1" as="geometry">
            <mxPoint x="641" y="520" as="sourcePoint" />
            <mxPoint x="375" y="520" as="targetPoint" />
          </mxGeometry>
        </mxCell>
        <mxCell id="5ey0apjwmLTVWswMsvuO-73" value="" style="endArrow=classic;html=1;rounded=0;entryX=0.933;entryY=0.438;entryDx=0;entryDy=0;entryPerimeter=0;" parent="1" edge="1">
          <mxGeometry width="50" height="50" relative="1" as="geometry">
            <mxPoint x="365" y="1010" as="sourcePoint" />
            <mxPoint x="112" y="1010" as="targetPoint" />
          </mxGeometry>
        </mxCell>
        <mxCell id="5ey0apjwmLTVWswMsvuO-74" value="Successful Message" style="text;html=1;align=center;verticalAlign=middle;resizable=0;points=[];autosize=1;strokeColor=none;fillColor=none;" parent="1" vertex="1">
          <mxGeometry x="160" y="978" width="130" height="30" as="geometry" />
        </mxCell>
        <mxCell id="5ey0apjwmLTVWswMsvuO-75" value="" style="endArrow=classic;html=1;rounded=0;exitX=1.182;exitY=0.065;exitDx=0;exitDy=0;exitPerimeter=0;" parent="1" edge="1">
          <mxGeometry width="50" height="50" relative="1" as="geometry">
            <mxPoint x="115" y="1051" as="sourcePoint" />
            <mxPoint x="365" y="1050" as="targetPoint" />
          </mxGeometry>
        </mxCell>
        <mxCell id="5ey0apjwmLTVWswMsvuO-76" value="SearchEmployeeByDesignation" style="text;html=1;align=center;verticalAlign=middle;resizable=0;points=[];autosize=1;strokeColor=none;fillColor=none;" parent="1" vertex="1">
          <mxGeometry x="135" y="1018" width="190" height="30" as="geometry" />
        </mxCell>
        <mxCell id="5ey0apjwmLTVWswMsvuO-77" value="" style="endArrow=classic;html=1;rounded=0;exitX=1.323;exitY=0.08;exitDx=0;exitDy=0;exitPerimeter=0;" parent="1" edge="1">
          <mxGeometry width="50" height="50" relative="1" as="geometry">
            <mxPoint x="375" y="1070" as="sourcePoint" />
            <mxPoint x="637" y="1070" as="targetPoint" />
          </mxGeometry>
        </mxCell>
        <mxCell id="5ey0apjwmLTVWswMsvuO-78" value="Send Designation" style="text;html=1;align=center;verticalAlign=middle;resizable=0;points=[];autosize=1;strokeColor=none;fillColor=none;" parent="1" vertex="1">
          <mxGeometry x="440" y="1040" width="120" height="30" as="geometry" />
        </mxCell>
        <mxCell id="5ey0apjwmLTVWswMsvuO-79" value="" style="endArrow=classic;html=1;rounded=0;entryX=0.933;entryY=0.438;entryDx=0;entryDy=0;entryPerimeter=0;" parent="1" edge="1">
          <mxGeometry width="50" height="50" relative="1" as="geometry">
            <mxPoint x="640" y="1110" as="sourcePoint" />
            <mxPoint x="374" y="1110" as="targetPoint" />
          </mxGeometry>
        </mxCell>
        <mxCell id="5ey0apjwmLTVWswMsvuO-80" value="Send Data to System" style="text;html=1;align=center;verticalAlign=middle;resizable=0;points=[];autosize=1;strokeColor=none;fillColor=none;" parent="1" vertex="1">
          <mxGeometry x="430" y="1080" width="140" height="30" as="geometry" />
        </mxCell>
        <mxCell id="5ey0apjwmLTVWswMsvuO-81" value="" style="endArrow=classic;html=1;rounded=0;entryX=0.933;entryY=0.438;entryDx=0;entryDy=0;entryPerimeter=0;" parent="1" edge="1">
          <mxGeometry width="50" height="50" relative="1" as="geometry">
            <mxPoint x="363" y="1140" as="sourcePoint" />
            <mxPoint x="110" y="1140" as="targetPoint" />
          </mxGeometry>
        </mxCell>
        <mxCell id="5ey0apjwmLTVWswMsvuO-82" value="Successful Message" style="text;html=1;align=center;verticalAlign=middle;resizable=0;points=[];autosize=1;strokeColor=none;fillColor=none;" parent="1" vertex="1">
          <mxGeometry x="155" y="1110" width="130" height="30" as="geometry" />
        </mxCell>
        <mxCell id="5ey0apjwmLTVWswMsvuO-83" value="" style="endArrow=classic;html=1;rounded=0;exitX=1.182;exitY=0.065;exitDx=0;exitDy=0;exitPerimeter=0;" parent="1" edge="1">
          <mxGeometry width="50" height="50" relative="1" as="geometry">
            <mxPoint x="115" y="1181" as="sourcePoint" />
            <mxPoint x="365" y="1180" as="targetPoint" />
          </mxGeometry>
        </mxCell>
        <mxCell id="5ey0apjwmLTVWswMsvuO-84" value="SearchEmployeeByName()" style="text;html=1;align=center;verticalAlign=middle;resizable=0;points=[];autosize=1;strokeColor=none;fillColor=none;" parent="1" vertex="1">
          <mxGeometry x="145" y="1150" width="170" height="30" as="geometry" />
        </mxCell>
        <mxCell id="5ey0apjwmLTVWswMsvuO-85" value="" style="endArrow=classic;html=1;rounded=0;exitX=1.323;exitY=0.08;exitDx=0;exitDy=0;exitPerimeter=0;" parent="1" edge="1">
          <mxGeometry width="50" height="50" relative="1" as="geometry">
            <mxPoint x="378" y="1200" as="sourcePoint" />
            <mxPoint x="640" y="1200" as="targetPoint" />
          </mxGeometry>
        </mxCell>
        <mxCell id="5ey0apjwmLTVWswMsvuO-86" value="Send Name" style="text;html=1;align=center;verticalAlign=middle;resizable=0;points=[];autosize=1;strokeColor=none;fillColor=none;" parent="1" vertex="1">
          <mxGeometry x="460" y="1170" width="90" height="30" as="geometry" />
        </mxCell>
        <mxCell id="5ey0apjwmLTVWswMsvuO-87" value="" style="endArrow=classic;html=1;rounded=0;entryX=0.933;entryY=0.438;entryDx=0;entryDy=0;entryPerimeter=0;" parent="1" edge="1">
          <mxGeometry width="50" height="50" relative="1" as="geometry">
            <mxPoint x="643" y="1240" as="sourcePoint" />
            <mxPoint x="377" y="1240" as="targetPoint" />
          </mxGeometry>
        </mxCell>
        <mxCell id="5ey0apjwmLTVWswMsvuO-88" value="Send Data to System" style="text;html=1;align=center;verticalAlign=middle;resizable=0;points=[];autosize=1;strokeColor=none;fillColor=none;" parent="1" vertex="1">
          <mxGeometry x="440" y="1210" width="140" height="30" as="geometry" />
        </mxCell>
        <mxCell id="5ey0apjwmLTVWswMsvuO-89" value="" style="endArrow=classic;html=1;rounded=0;entryX=0.933;entryY=0.438;entryDx=0;entryDy=0;entryPerimeter=0;" parent="1" edge="1">
          <mxGeometry width="50" height="50" relative="1" as="geometry">
            <mxPoint x="363" y="1262" as="sourcePoint" />
            <mxPoint x="110" y="1262" as="targetPoint" />
          </mxGeometry>
        </mxCell>
        <mxCell id="5ey0apjwmLTVWswMsvuO-90" value="Successful Message" style="text;html=1;align=center;verticalAlign=middle;resizable=0;points=[];autosize=1;strokeColor=none;fillColor=none;" parent="1" vertex="1">
          <mxGeometry x="160" y="1228" width="130" height="30" as="geometry" />
        </mxCell>
        <mxCell id="5ey0apjwmLTVWswMsvuO-91" value="" style="endArrow=classic;html=1;rounded=0;exitX=1.182;exitY=0.065;exitDx=0;exitDy=0;exitPerimeter=0;" parent="1" edge="1">
          <mxGeometry width="50" height="50" relative="1" as="geometry">
            <mxPoint x="110" y="1301" as="sourcePoint" />
            <mxPoint x="360" y="1300" as="targetPoint" />
          </mxGeometry>
        </mxCell>
        <mxCell id="5ey0apjwmLTVWswMsvuO-92" value="SearchEmployeeByEPFNo()" style="text;html=1;align=center;verticalAlign=middle;resizable=0;points=[];autosize=1;strokeColor=none;fillColor=none;" parent="1" vertex="1">
          <mxGeometry x="135" y="1270" width="180" height="30" as="geometry" />
        </mxCell>
        <mxCell id="5ey0apjwmLTVWswMsvuO-93" value="" style="endArrow=classic;html=1;rounded=0;exitX=1.323;exitY=0.08;exitDx=0;exitDy=0;exitPerimeter=0;" parent="1" edge="1">
          <mxGeometry width="50" height="50" relative="1" as="geometry">
            <mxPoint x="379" y="1310" as="sourcePoint" />
            <mxPoint x="641" y="1310" as="targetPoint" />
          </mxGeometry>
        </mxCell>
        <mxCell id="5ey0apjwmLTVWswMsvuO-94" value="Send EPF No" style="text;html=1;align=center;verticalAlign=middle;resizable=0;points=[];autosize=1;strokeColor=none;fillColor=none;" parent="1" vertex="1">
          <mxGeometry x="440" y="1280" width="100" height="30" as="geometry" />
        </mxCell>
        <mxCell id="5ey0apjwmLTVWswMsvuO-95" value="" style="endArrow=classic;html=1;rounded=0;entryX=0.933;entryY=0.438;entryDx=0;entryDy=0;entryPerimeter=0;" parent="1" edge="1">
          <mxGeometry width="50" height="50" relative="1" as="geometry">
            <mxPoint x="640" y="1350" as="sourcePoint" />
            <mxPoint x="374" y="1350" as="targetPoint" />
          </mxGeometry>
        </mxCell>
        <mxCell id="5ey0apjwmLTVWswMsvuO-96" value="Send Data to System" style="text;html=1;align=center;verticalAlign=middle;resizable=0;points=[];autosize=1;strokeColor=none;fillColor=none;" parent="1" vertex="1">
          <mxGeometry x="430" y="1320" width="140" height="30" as="geometry" />
        </mxCell>
        <mxCell id="5ey0apjwmLTVWswMsvuO-97" value="" style="endArrow=classic;html=1;rounded=0;entryX=0.933;entryY=0.438;entryDx=0;entryDy=0;entryPerimeter=0;" parent="1" edge="1">
          <mxGeometry width="50" height="50" relative="1" as="geometry">
            <mxPoint x="366.5" y="1374" as="sourcePoint" />
            <mxPoint x="113.5" y="1374" as="targetPoint" />
          </mxGeometry>
        </mxCell>
        <mxCell id="5ey0apjwmLTVWswMsvuO-98" value="Successful Message" style="text;html=1;align=center;verticalAlign=middle;resizable=0;points=[];autosize=1;strokeColor=none;fillColor=none;" parent="1" vertex="1">
          <mxGeometry x="165" y="1340" width="130" height="30" as="geometry" />
        </mxCell>
        <mxCell id="5ey0apjwmLTVWswMsvuO-99" value="" style="endArrow=classic;html=1;rounded=0;exitX=1.182;exitY=0.065;exitDx=0;exitDy=0;exitPerimeter=0;" parent="1" edge="1">
          <mxGeometry width="50" height="50" relative="1" as="geometry">
            <mxPoint x="115" y="1421" as="sourcePoint" />
            <mxPoint x="365" y="1420" as="targetPoint" />
          </mxGeometry>
        </mxCell>
        <mxCell id="5ey0apjwmLTVWswMsvuO-100" value="SearchAllEmployeeDetails()" style="text;html=1;align=center;verticalAlign=middle;resizable=0;points=[];autosize=1;strokeColor=none;fillColor=none;" parent="1" vertex="1">
          <mxGeometry x="145" y="1390" width="170" height="30" as="geometry" />
        </mxCell>
        <mxCell id="5ey0apjwmLTVWswMsvuO-101" value="" style="endArrow=classic;html=1;rounded=0;exitX=1.323;exitY=0.08;exitDx=0;exitDy=0;exitPerimeter=0;" parent="1" edge="1">
          <mxGeometry width="50" height="50" relative="1" as="geometry">
            <mxPoint x="378" y="1430" as="sourcePoint" />
            <mxPoint x="640" y="1430" as="targetPoint" />
          </mxGeometry>
        </mxCell>
        <mxCell id="5ey0apjwmLTVWswMsvuO-102" value="View Employee Details" style="text;html=1;align=center;verticalAlign=middle;resizable=0;points=[];autosize=1;strokeColor=none;fillColor=none;" parent="1" vertex="1">
          <mxGeometry x="430" y="1398" width="150" height="30" as="geometry" />
        </mxCell>
        <mxCell id="5ey0apjwmLTVWswMsvuO-103" value="" style="endArrow=classic;html=1;rounded=0;entryX=0.933;entryY=0.438;entryDx=0;entryDy=0;entryPerimeter=0;" parent="1" edge="1">
          <mxGeometry width="50" height="50" relative="1" as="geometry">
            <mxPoint x="643" y="1470" as="sourcePoint" />
            <mxPoint x="377" y="1470" as="targetPoint" />
          </mxGeometry>
        </mxCell>
        <mxCell id="5ey0apjwmLTVWswMsvuO-104" value="Retrieve Employee Details" style="text;html=1;align=center;verticalAlign=middle;resizable=0;points=[];autosize=1;strokeColor=none;fillColor=none;" parent="1" vertex="1">
          <mxGeometry x="420" y="1438" width="160" height="30" as="geometry" />
        </mxCell>
        <mxCell id="5ey0apjwmLTVWswMsvuO-105" value="" style="endArrow=classic;html=1;rounded=0;entryX=0.933;entryY=0.438;entryDx=0;entryDy=0;entryPerimeter=0;" parent="1" edge="1">
          <mxGeometry width="50" height="50" relative="1" as="geometry">
            <mxPoint x="365" y="1480" as="sourcePoint" />
            <mxPoint x="112" y="1480" as="targetPoint" />
          </mxGeometry>
        </mxCell>
        <mxCell id="5ey0apjwmLTVWswMsvuO-106" value="Show Employee Details" style="text;html=1;align=center;verticalAlign=middle;resizable=0;points=[];autosize=1;strokeColor=none;fillColor=none;" parent="1" vertex="1">
          <mxGeometry x="160" y="1448" width="150" height="30" as="geometry" />
        </mxCell>
        <mxCell id="5ey0apjwmLTVWswMsvuO-107" value="" style="endArrow=classic;html=1;rounded=0;exitX=1.182;exitY=0.065;exitDx=0;exitDy=0;exitPerimeter=0;" parent="1" edge="1">
          <mxGeometry width="50" height="50" relative="1" as="geometry">
            <mxPoint x="115" y="1541" as="sourcePoint" />
            <mxPoint x="365" y="1540" as="targetPoint" />
          </mxGeometry>
        </mxCell>
        <mxCell id="5ey0apjwmLTVWswMsvuO-108" value="DeleteEmployee()" style="text;html=1;align=center;verticalAlign=middle;resizable=0;points=[];autosize=1;strokeColor=none;fillColor=none;" parent="1" vertex="1">
          <mxGeometry x="170" y="1510" width="120" height="30" as="geometry" />
        </mxCell>
        <mxCell id="5ey0apjwmLTVWswMsvuO-109" value="" style="endArrow=classic;html=1;rounded=0;exitX=1.323;exitY=0.08;exitDx=0;exitDy=0;exitPerimeter=0;" parent="1" edge="1">
          <mxGeometry width="50" height="50" relative="1" as="geometry">
            <mxPoint x="378" y="1560" as="sourcePoint" />
            <mxPoint x="640" y="1560" as="targetPoint" />
          </mxGeometry>
        </mxCell>
        <mxCell id="5ey0apjwmLTVWswMsvuO-111" value="View DeleteEmployee Details" style="text;html=1;align=center;verticalAlign=middle;resizable=0;points=[];autosize=1;strokeColor=none;fillColor=none;" parent="1" vertex="1">
          <mxGeometry x="415" y="1530" width="180" height="30" as="geometry" />
        </mxCell>
        <mxCell id="5ey0apjwmLTVWswMsvuO-112" value="" style="endArrow=classic;html=1;rounded=0;entryX=0.933;entryY=0.438;entryDx=0;entryDy=0;entryPerimeter=0;" parent="1" edge="1">
          <mxGeometry width="50" height="50" relative="1" as="geometry">
            <mxPoint x="640" y="1600" as="sourcePoint" />
            <mxPoint x="374" y="1600" as="targetPoint" />
          </mxGeometry>
        </mxCell>
        <mxCell id="5ey0apjwmLTVWswMsvuO-113" value="Retrieve Deleted&amp;nbsp; Employee" style="text;html=1;align=center;verticalAlign=middle;resizable=0;points=[];autosize=1;strokeColor=none;fillColor=none;" parent="1" vertex="1">
          <mxGeometry x="415" y="1568" width="170" height="30" as="geometry" />
        </mxCell>
        <mxCell id="5ey0apjwmLTVWswMsvuO-114" value="" style="endArrow=classic;html=1;rounded=0;entryX=0.933;entryY=0.438;entryDx=0;entryDy=0;entryPerimeter=0;" parent="1" edge="1">
          <mxGeometry width="50" height="50" relative="1" as="geometry">
            <mxPoint x="361.5" y="1620" as="sourcePoint" />
            <mxPoint x="108.5" y="1620" as="targetPoint" />
          </mxGeometry>
        </mxCell>
        <mxCell id="5ey0apjwmLTVWswMsvuO-115" value="Successful Message&amp;nbsp;" style="text;html=1;align=center;verticalAlign=middle;resizable=0;points=[];autosize=1;strokeColor=none;fillColor=none;" parent="1" vertex="1">
          <mxGeometry x="155" y="1590" width="140" height="30" as="geometry" />
        </mxCell>
        <mxCell id="5ey0apjwmLTVWswMsvuO-116" value="" style="endArrow=classic;html=1;rounded=0;exitX=1.182;exitY=0.065;exitDx=0;exitDy=0;exitPerimeter=0;" parent="1" edge="1">
          <mxGeometry width="50" height="50" relative="1" as="geometry">
            <mxPoint x="115" y="1661" as="sourcePoint" />
            <mxPoint x="365" y="1660" as="targetPoint" />
          </mxGeometry>
        </mxCell>
        <mxCell id="5ey0apjwmLTVWswMsvuO-117" value="UpdateEmployeeDetails()" style="text;html=1;align=center;verticalAlign=middle;resizable=0;points=[];autosize=1;strokeColor=none;fillColor=none;" parent="1" vertex="1">
          <mxGeometry x="150" y="1630" width="160" height="30" as="geometry" />
        </mxCell>
        <mxCell id="5ey0apjwmLTVWswMsvuO-118" value="" style="endArrow=classic;html=1;rounded=0;exitX=1.323;exitY=0.08;exitDx=0;exitDy=0;exitPerimeter=0;" parent="1" edge="1">
          <mxGeometry width="50" height="50" relative="1" as="geometry">
            <mxPoint x="379" y="1670" as="sourcePoint" />
            <mxPoint x="641" y="1670" as="targetPoint" />
          </mxGeometry>
        </mxCell>
        <mxCell id="5ey0apjwmLTVWswMsvuO-119" value="View UpdatedEmployeeDetails" style="text;html=1;align=center;verticalAlign=middle;resizable=0;points=[];autosize=1;strokeColor=none;fillColor=none;" parent="1" vertex="1">
          <mxGeometry x="415" y="1635" width="190" height="30" as="geometry" />
        </mxCell>
        <mxCell id="5ey0apjwmLTVWswMsvuO-120" value="" style="endArrow=classic;html=1;rounded=0;entryX=0.933;entryY=0.438;entryDx=0;entryDy=0;entryPerimeter=0;" parent="1" edge="1">
          <mxGeometry width="50" height="50" relative="1" as="geometry">
            <mxPoint x="638" y="1710" as="sourcePoint" />
            <mxPoint x="372" y="1710" as="targetPoint" />
          </mxGeometry>
        </mxCell>
        <mxCell id="5ey0apjwmLTVWswMsvuO-121" value="Retrieve Updated Employee" style="text;html=1;align=center;verticalAlign=middle;resizable=0;points=[];autosize=1;strokeColor=none;fillColor=none;" parent="1" vertex="1">
          <mxGeometry x="415" y="1678" width="170" height="30" as="geometry" />
        </mxCell>
        <mxCell id="5ey0apjwmLTVWswMsvuO-122" value="" style="endArrow=classic;html=1;rounded=0;entryX=0.933;entryY=0.438;entryDx=0;entryDy=0;entryPerimeter=0;" parent="1" edge="1">
          <mxGeometry width="50" height="50" relative="1" as="geometry">
            <mxPoint x="361.5" y="1730" as="sourcePoint" />
            <mxPoint x="108.5" y="1730" as="targetPoint" />
          </mxGeometry>
        </mxCell>
        <mxCell id="5ey0apjwmLTVWswMsvuO-123" value="Successful Message" style="text;html=1;align=center;verticalAlign=middle;resizable=0;points=[];autosize=1;strokeColor=none;fillColor=none;" parent="1" vertex="1">
          <mxGeometry x="160" y="1698" width="130" height="30" as="geometry" />
        </mxCell>
        <mxCell id="5ey0apjwmLTVWswMsvuO-124" value="" style="endArrow=classic;html=1;rounded=0;exitX=1.182;exitY=0.065;exitDx=0;exitDy=0;exitPerimeter=0;" parent="1" edge="1">
          <mxGeometry width="50" height="50" relative="1" as="geometry">
            <mxPoint x="115" y="1771" as="sourcePoint" />
            <mxPoint x="365" y="1770" as="targetPoint" />
          </mxGeometry>
        </mxCell>
        <mxCell id="5ey0apjwmLTVWswMsvuO-125" value="Logout()" style="text;html=1;align=center;verticalAlign=middle;resizable=0;points=[];autosize=1;strokeColor=none;fillColor=none;" parent="1" vertex="1">
          <mxGeometry x="185" y="1740" width="70" height="30" as="geometry" />
        </mxCell>
        <mxCell id="5ey0apjwmLTVWswMsvuO-126" value="" style="endArrow=classic;html=1;rounded=0;entryX=0.933;entryY=0.438;entryDx=0;entryDy=0;entryPerimeter=0;" parent="1" edge="1">
          <mxGeometry width="50" height="50" relative="1" as="geometry">
            <mxPoint x="361.5" y="1810" as="sourcePoint" />
            <mxPoint x="108.5" y="1810" as="targetPoint" />
          </mxGeometry>
        </mxCell>
        <mxCell id="5ey0apjwmLTVWswMsvuO-127" value="Logout Notification" style="text;html=1;align=center;verticalAlign=middle;resizable=0;points=[];autosize=1;strokeColor=none;fillColor=none;" parent="1" vertex="1">
          <mxGeometry x="160" y="1778" width="120" height="30" as="geometry" />
        </mxCell>
        <mxCell id="yeU8VBTKVNjn0RqhSNfT-3" value="" style="endArrow=none;dashed=1;html=1;rounded=0;" edge="1" parent="1">
          <mxGeometry width="50" height="50" relative="1" as="geometry">
            <mxPoint x="645" y="1860" as="sourcePoint" />
            <mxPoint x="644.5" y="1760" as="targetPoint" />
          </mxGeometry>
        </mxCell>
        <mxCell id="yeU8VBTKVNjn0RqhSNfT-4" value="" style="endArrow=none;dashed=1;html=1;rounded=0;" edge="1" parent="1">
          <mxGeometry width="50" height="50" relative="1" as="geometry">
            <mxPoint x="105" y="1960" as="sourcePoint" />
            <mxPoint x="104.5" y="1860" as="targetPoint" />
          </mxGeometry>
        </mxCell>
        <mxCell id="yeU8VBTKVNjn0RqhSNfT-5" value="" style="endArrow=none;dashed=1;html=1;rounded=0;" edge="1" parent="1">
          <mxGeometry width="50" height="50" relative="1" as="geometry">
            <mxPoint x="370" y="1920" as="sourcePoint" />
            <mxPoint x="369.5" y="1820" as="targetPoint" />
          </mxGeometry>
        </mxCell>
      </root>
    </mxGraphModel>
  </diagram>
</mxfile>
